<svg width="20" height="20" viewBox="0 0 20 20" fill="none" xmlns="http://www.w3.org/2000/svg">
<path d="M8.49325 16.6295C8.49325 16.8679 8.42256 17.1009 8.29011 17.2992C8.15767 17.4974 7.96941 17.6519 7.74916 17.7431C7.52891 17.8343 7.28656 17.8582 7.05274 17.8117C6.81892 17.7652 6.60415 17.6504 6.43558 17.4818C6.26701 17.3133 6.15221 17.0985 6.1057 16.8647C6.05919 16.6308 6.08306 16.3885 6.17429 16.1682C6.26552 15.948 6.42001 15.7597 6.61823 15.6273C6.81645 15.4948 7.0495 15.4242 7.28789 15.4242C7.60757 15.4242 7.91416 15.5511 8.14021 15.7772C8.36626 16.0032 8.49325 16.3098 8.49325 16.6295ZM15.1227 15.4242C14.8843 15.4242 14.6513 15.4948 14.4531 15.6273C14.2548 15.7597 14.1003 15.948 14.0091 16.1682C13.9179 16.3885 13.894 16.6308 13.9405 16.8647C13.987 17.0985 14.1018 17.3133 14.2704 17.4818C14.439 17.6504 14.6537 17.7652 14.8876 17.8117C15.1214 17.8582 15.3637 17.8343 15.584 17.7431C15.8042 17.6519 15.9925 17.4974 16.1249 17.2992C16.2574 17.1009 16.3281 16.8679 16.3281 16.6295C16.3281 16.3098 16.2011 16.0032 15.975 15.7772C15.749 15.5511 15.4424 15.4242 15.1227 15.4242ZM18.7124 5.95833L16.5631 12.9426C16.4505 13.3129 16.2216 13.637 15.9103 13.8668C15.599 14.0967 15.2219 14.2201 14.8349 14.2188H7.59451C7.20199 14.2173 6.82052 14.0887 6.50721 13.8523C6.19389 13.6158 5.96561 13.2843 5.85653 12.9072L3.13092 3.37058H1.86379C1.70395 3.37058 1.55065 3.30708 1.43763 3.19406C1.3246 3.08103 1.26111 2.92774 1.26111 2.7679C1.26111 2.60806 1.3246 2.45477 1.43763 2.34174C1.55065 2.22872 1.70395 2.16522 1.86379 2.16522H3.13092C3.39264 2.16609 3.64704 2.2517 3.85604 2.40923C4.06504 2.56676 4.21741 2.78775 4.29032 3.03911L4.90129 5.17861H18.1361C18.2304 5.17858 18.3234 5.20068 18.4076 5.24314C18.4919 5.28559 18.5649 5.34722 18.621 5.42307C18.677 5.49891 18.7145 5.58685 18.7304 5.67982C18.7463 5.77278 18.7401 5.86818 18.7124 5.95833ZM17.3202 6.38397H5.24557L7.01518 12.5765C7.05118 12.7024 7.12719 12.8131 7.23172 12.8919C7.33624 12.9708 7.46359 13.0134 7.59451 13.0134H14.8349C14.9639 13.0135 15.0895 12.9722 15.1932 12.8955C15.2969 12.8189 15.3734 12.7111 15.4112 12.5878L17.3202 6.38397Z" fill="white"/>
</svg>
